<svg aria-hidden="true" style="position: absolute; width: 0; height: 0; overflow: hidden;" version="1.1" xmlns="http://www.w3.org/2000/svg" xmlns:xlink="http://www.w3.org/1999/xlink">
<defs>
<symbol id="icon-burger-menu" viewBox="0 0 57 32">
<path fill="#39515e" style="fill: var(--color3, #39515e)" d="M1.684 0h53.102c0.93 0 1.684 0.754 1.684 1.684v2.279c0 0.93-0.754 1.684-1.684 1.684h-53.102c-0.93 0-1.684-0.754-1.684-1.684v-2.279c0-0.93 0.754-1.684 1.684-1.684z"></path>
<path fill="#39515e" style="fill: var(--color3, #39515e)" d="M1.684 13.176h53.102c0.93 0 1.684 0.754 1.684 1.684v2.279c0 0.93-0.754 1.684-1.684 1.684h-53.102c-0.93 0-1.684-0.754-1.684-1.684v-2.279c0-0.93 0.754-1.684 1.684-1.684z"></path>
<path fill="#39515e" style="fill: var(--color3, #39515e)" d="M1.684 26.353h36.574c0.93 0 1.684 0.754 1.684 1.684v2.279c0 0.93-0.754 1.684-1.684 1.684h-36.574c-0.93 0-1.684-0.754-1.684-1.684v-2.279c0-0.93 0.754-1.684 1.684-1.684z"></path>
</symbol>
<symbol id="icon-cross" viewBox="0 0 32 32">
<path fill="#39515e" style="fill: var(--color1, #39515e)" d="M17.88 16l5.733-5.72c0.251-0.251 0.392-0.592 0.392-0.947s-0.141-0.696-0.392-0.947c-0.251-0.251-0.592-0.392-0.947-0.392s-0.696 0.141-0.947 0.392l-5.72 5.733-5.72-5.733c-0.251-0.251-0.592-0.392-0.947-0.392s-0.696 0.141-0.947 0.392-0.392 0.592-0.392 0.947c0 0.355 0.141 0.696 0.392 0.947l5.733 5.72-5.733 5.72c-0.125 0.124-0.224 0.271-0.292 0.434s-0.103 0.337-0.103 0.513 0.035 0.35 0.103 0.513c0.068 0.162 0.167 0.31 0.292 0.434 0.124 0.125 0.271 0.224 0.434 0.292s0.337 0.103 0.513 0.103c0.176 0 0.35-0.035 0.513-0.103s0.31-0.167 0.434-0.292l5.72-5.733 5.72 5.733c0.124 0.125 0.271 0.224 0.434 0.292s0.337 0.103 0.513 0.103 0.35-0.035 0.513-0.103c0.162-0.068 0.31-0.167 0.434-0.292 0.125-0.124 0.224-0.271 0.292-0.434s0.102-0.337 0.102-0.513c0-0.176-0.035-0.35-0.102-0.513s-0.167-0.31-0.292-0.434l-5.733-5.72z"></path>
</symbol>
</defs>
</svg>
